<?xml version="1.0" standalone="no"?>
<!DOCTYPE svg PUBLIC "-//W3C//DTD SVG 20010904//EN"
 "http://www.w3.org/TR/2001/REC-SVG-20010904/DTD/svg10.dtd">
<svg version="1.0" xmlns="http://www.w3.org/2000/svg"
 width="60.000000pt" height="32.000000pt" viewBox="0 0 60.000000 32.000000"
 preserveAspectRatio="xMidYMid meet">
<metadata>
Created by potrace 1.16, written by Peter Selinger 2001-2019
</metadata>
<g transform="translate(0.000000,32.000000) scale(0.005396,-0.004624)"
fill="black" stroke="none">
<path d="M650 3635 l0 -1775 5320 0 5320 0 -2 1778 -3 1777 -2 -1772 -3 -1773
-5310 0 -5310 0 2 1770 c2 974 0 1770 -4 1770 -5 0 -8 -799 -8 -1775z"/>
<path d="M3603 5168 c-6 -68 -21 -152 -32 -188 -28 -90 -108 -203 -255 -358
-149 -159 -214 -242 -260 -337 -62 -127 -68 -167 -73 -503 l-5 -304 48 7 c27
4 55 8 62 10 9 3 12 37 12 125 0 67 5 130 10 141 17 31 86 60 160 66 60 5 70
3 89 -16 18 -18 21 -33 21 -101 l0 -80 55 0 55 0 0 78 c0 127 36 162 172 162
109 0 118 -16 118 -210 l0 -140 55 0 55 0 0 295 c0 316 -3 337 -51 382 -83 76
-276 73 -378 -6 -23 -18 -26 -18 -50 -2 -59 38 -228 12 -284 -44 -28 -28 -31
-11 -8 58 45 133 121 218 379 419 235 184 312 268 353 382 21 62 39 163 39
227 0 58 -3 59 -160 59 l-116 0 -11 -122z"/>
<path d="M4271 5226 c-55 -18 -88 -49 -115 -106 -20 -42 -21 -65 -24 -335 -3
-192 0 -307 7 -341 25 -113 125 -177 276 -178 66 -1 89 4 130 24 73 37 88 69
96 208 8 147 19 166 105 170 46 2 69 -3 104 -20 63 -32 75 -61 75 -185 0 -97
-1 -104 -26 -129 -19 -19 -38 -26 -68 -27 l-41 -2 0 -42 c0 -41 1 -43 42 -53
22 -7 54 -25 70 -41 l30 -29 -4 -179 c-3 -190 -7 -203 -56 -222 -29 -11 -132
5 -175 27 -41 22 -57 69 -57 173 0 99 -1 101 -71 101 l-39 0 0 -240 c0 -264 2
-275 61 -324 79 -67 213 -110 322 -104 57 3 71 8 95 31 l27 27 3 361 c3 349 2
362 -18 394 -11 18 -28 36 -36 39 -13 5 -11 12 14 41 19 21 33 50 37 77 4 24
5 167 3 318 -3 264 -4 277 -26 322 -31 63 -109 132 -180 159 -79 30 -180 32
-219 3 l-28 -21 -43 38 c-71 62 -190 91 -271 65z m184 -520 c50 -21 68 -64 73
-172 5 -105 -12 -158 -57 -176 -41 -15 -137 -5 -169 19 -43 32 -52 59 -52 172
l0 103 34 34 c30 30 40 34 85 34 29 0 67 -6 86 -14z"/>
<path d="M2410 5108 c-34 -18 -51 -35 -72 -76 l-27 -52 -17 30 c-42 70 -112
64 -181 -16 -49 -57 -74 -66 -105 -37 -17 16 -18 5 -18 -326 l0 -341 25 -10
c34 -13 48 -6 89 44 46 56 87 74 120 53 28 -19 36 -54 36 -163 l0 -83 50 21
50 21 0 61 c0 33 5 90 10 126 7 54 14 70 40 93 38 34 84 36 102 5 10 -17 13
-101 13 -343 l0 -319 -121 -66 c-223 -122 -324 -211 -389 -343 -86 -177 -63
-374 60 -506 56 -59 104 -89 202 -124 77 -28 215 -57 269 -57 l34 0 0 -107 c0
-60 -5 -128 -11 -153 -14 -63 -64 -112 -137 -135 l-23 -7 20 41 c24 47 27 117
7 164 -20 48 -89 103 -147 117 -173 42 -320 -121 -250 -275 25 -57 119 -139
189 -166 86 -33 219 -38 294 -10 78 30 138 79 173 142 l30 54 0 179 0 179 40
14 c139 47 217 164 218 323 1 162 -100 276 -279 314 l-31 7 -6 116 c-6 114 -6
116 22 157 102 151 144 271 145 411 0 83 -3 109 -22 151 -33 74 -79 115 -136
121 l-46 6 0 271 c0 149 -5 300 -11 336 -25 158 -98 214 -209 158z m307 -949
c7 -13 13 -56 13 -95 0 -57 -5 -81 -27 -125 -53 -103 -74 -55 -54 121 14 126
37 160 68 99z m-184 -707 l4 -73 -56 -27 c-69 -32 -149 -110 -181 -177 -19
-40 -24 -66 -25 -131 0 -73 3 -84 28 -117 34 -45 74 -67 122 -67 33 0 35 2 35
31 0 19 -7 37 -17 45 -27 19 -25 143 3 181 23 31 89 71 100 61 3 -4 10 -65 15
-135 5 -70 10 -152 12 -180 l4 -53 -42 0 c-146 0 -298 91 -356 215 -66 137
-14 266 162 401 76 58 172 115 180 106 4 -4 9 -40 12 -80z m211 -327 c75 -74
73 -200 -4 -255 l-28 -20 -6 87 c-4 49 -9 118 -12 156 -7 78 0 82 50 32z"/>
<path d="M5280 4806 c0 -245 9 -291 71 -372 22 -29 72 -80 112 -115 40 -35 98
-91 130 -124 84 -87 89 -111 85 -394 -3 -208 -5 -231 -22 -250 -11 -12 -31
-21 -47 -21 -48 0 -133 38 -170 76 l-34 35 -3 118 -4 119 -51 14 -52 15 -8
-106 c-4 -58 -6 -182 -5 -276 4 -193 12 -220 86 -287 82 -74 227 -137 315
-138 57 0 92 28 102 81 3 19 5 237 3 484 -3 520 5 473 -116 635 -110 146 -105
130 -110 392 l-4 227 -57 22 c-31 12 -93 34 -138 50 l-83 28 0 -213z"/>
<path d="M1536 4794 c-37 -12 -66 -32 -116 -82 -56 -56 -72 -80 -98 -147 -44
-114 -52 -200 -52 -526 0 -315 0 -317 60 -404 l31 -44 -24 -48 c-33 -65 -71
-172 -64 -179 3 -3 28 6 56 22 35 18 51 33 51 47 0 78 70 170 153 202 93 35
117 3 117 -157 0 -124 -14 -178 -64 -246 -102 -136 -431 -328 -527 -307 -62
14 -60 6 -57 421 3 412 3 408 62 463 l26 24 0 364 c0 301 -2 363 -14 363 -22
0 -96 -87 -122 -145 -53 -115 -54 -147 -52 -965 l3 -755 25 3 c34 3 149 59
295 141 66 37 187 103 269 147 92 49 169 98 205 130 l56 51 3 228 c4 278 -4
329 -54 353 -19 9 -33 21 -30 26 3 6 22 52 43 101 l38 90 3 284 c3 307 -3 382
-41 465 -39 85 -92 108 -181 80z m74 -704 c40 -21 53 -134 25 -227 -17 -59
-71 -114 -142 -145 -82 -36 -113 -10 -113 98 0 154 66 244 208 283 2 1 12 -3
22 -9z"/>
<path d="M6160 4516 c0 -19 20 -114 45 -212 25 -97 45 -191 45 -208 l-1 -31
-19 37 c-27 50 -80 65 -80 22 0 -27 39 -92 68 -112 47 -34 77 -37 103 -11 21
21 21 26 14 118 -21 251 -15 267 91 212 l65 -34 -3 -651 c-3 -674 -4 -696 -43
-696 -36 0 -5 -21 133 -90 81 -40 151 -76 156 -78 12 -7 -2 18 -28 46 -21 23
-21 29 -24 693 -2 538 0 669 10 669 7 0 37 -14 65 -30 86 -49 95 -80 78 -277
-7 -87 -5 -109 9 -148 31 -80 122 -128 161 -85 18 19 18 24 5 47 -8 14 -25 32
-36 40 -19 12 -24 12 -37 -2 -10 -9 -18 -11 -22 -5 -10 16 5 76 52 210 23 69
43 136 43 150 0 22 -11 30 -78 59 -148 66 -431 211 -597 306 -91 52 -168 95
-170 95 -3 0 -5 -15 -5 -34z"/>
<path d="M10627 3934 c-87 -28 -161 -54 -164 -58 -3 -3 2 -8 11 -12 35 -13 19
-109 -124 -761 -78 -351 -146 -655 -152 -676 -7 -23 -26 -51 -47 -67 -19 -16
-33 -31 -30 -33 7 -7 223 44 234 55 7 6 4 13 -7 19 -22 12 -24 76 -4 131 28
79 98 137 275 227 l118 60 16 -97 c24 -135 23 -183 -5 -207 -12 -10 -17 -20
-11 -22 16 -6 305 101 305 112 -1 6 -11 12 -24 15 -33 8 -47 45 -74 192 -17
92 -21 135 -14 148 13 24 13 217 0 225 -5 3 -10 0 -10 -7 0 -18 -21 -91 -25
-86 -5 5 -133 714 -141 779 -6 50 -4 59 15 78 12 12 21 26 19 30 -2 4 -74 -16
-161 -45z m22 -630 c34 -182 61 -340 61 -351 0 -12 -11 -25 -27 -32 -55 -25
-197 -124 -249 -173 -30 -28 -54 -47 -54 -42 0 15 203 934 206 932 1 -2 30
-152 63 -334z"/>
<path d="M7201 3943 c-41 -21 -60 -39 -78 -73 l-24 -44 3 -496 3 -495 34 -69
c47 -96 144 -196 233 -241 61 -30 80 -35 142 -35 85 0 138 21 183 73 18 20 37
54 43 74 8 26 10 187 8 513 l-3 475 -32 68 c-44 92 -143 191 -236 237 -55 27
-84 34 -145 38 -70 4 -82 1 -131 -25z m238 -93 c28 -15 81 -103 102 -171 17
-56 19 -97 19 -493 0 -297 -4 -444 -11 -467 -27 -78 -100 -141 -137 -118 -29
18 -80 98 -102 161 -19 54 -20 82 -20 510 0 437 1 453 21 495 22 45 71 93 95
93 9 0 23 -4 33 -10z"/>
<path d="M7850 3820 c0 -4 7 -13 16 -20 38 -33 39 -41 44 -640 l5 -585 34 -63
c137 -251 453 -297 579 -84 l27 47 5 583 5 584 30 23 c34 28 30 31 -70 40 -38
3 -89 9 -112 12 l-43 6 0 -590 0 -589 -26 -52 c-27 -55 -75 -102 -103 -102
-24 0 -74 55 -107 120 l-29 55 -3 602 -3 603 -22 5 c-12 2 -68 15 -124 28 -57
13 -103 21 -103 17z"/>
<path d="M10120 3794 c-86 -22 -368 -72 -447 -80 -40 -3 -73 -10 -73 -14 0 -4
10 -14 23 -22 l22 -15 3 -682 2 -682 -25 -23 c-32 -30 -32 -37 3 -31 15 2 84
12 155 21 123 17 149 26 107 39 -32 10 -40 67 -40 283 l0 202 70 0 c54 0 72
-4 76 -15 4 -8 12 -15 20 -15 11 0 14 20 14 90 0 89 -9 110 -30 70 -14 -25
-54 -46 -107 -55 l-43 -7 0 405 0 404 57 12 c83 16 100 14 119 -14 13 -21 15
-39 10 -98 -21 -223 -21 -220 9 -255 20 -24 35 -32 60 -32 37 0 90 37 100 70
20 62 -41 83 -75 28 l-20 -33 0 31 c0 30 11 76 65 269 27 99 33 166 13 164 -7
-1 -38 -7 -68 -15z"/>
<path d="M8706 3676 c3 -8 12 -17 19 -20 31 -12 35 -82 35 -707 0 -628 -3
-689 -35 -689 -7 0 -15 -6 -18 -14 -4 -10 18 -14 100 -20 132 -8 203 -8 203 0
0 3 -10 14 -21 23 -29 24 -38 84 -38 279 -1 114 2 162 10 162 35 0 128 -132
264 -378 122 -221 172 -287 238 -318 30 -14 71 -24 96 -24 92 0 170 66 141
119 -6 12 -19 21 -30 21 -19 0 -50 -25 -50 -41 0 -5 -10 -9 -21 -9 -36 0 -88
68 -154 202 -64 130 -135 231 -255 361 l-63 69 49 40 c27 23 92 84 144 137
119 121 170 211 178 310 9 124 -43 258 -132 346 -100 97 -230 140 -457 150
-79 3 -159 8 -176 11 -26 4 -32 2 -27 -10z m401 -121 c111 -55 182 -162 204
-307 35 -237 -111 -467 -306 -480 l-50 -3 -3 405 c-1 223 0 410 2 416 6 17 89
0 153 -31z"/>
</g>
</svg>
